<svg xmlns="http://www.w3.org/2000/svg" viewBox="0 0 256 256" xml:space="preserve"><path d="m241.3 168.2.1-5.2c.1-10.1.2-19.7-4.7-30.5-4.8-8-9.8-12.6-14.2-16.8-6.8-6.4-11.4-25.4-11.7-39.4 9.5-1.9 16.7-10.3 16.7-20.4v-4.1h-9V39.7h-8.1v12.2h-9.2V39.7h-8.1v12.2h-7.2V56c0 10.1 7.2 18.5 16.8 20.4.3 17.5 6.7 38.3 14.2 45.3 4.2 3.9 8.6 8 12.5 14.6 3.1 6.8 3.7 13.4 3.8 20.5-8.1-8.3-19.5-13.6-32-13.6h-8.4c-4.4-20.9-23-36.2-44.6-36.2h-32.4c-21.6 0-40.1 15.3-44.6 36.2H54.7C30.1 143.2 10 163.3 10 188v17h14.3v-8.1h-6.1V188c0-20.2 16.4-36.6 36.6-36.6h23.5l.5-3.5c2.5-18.6 18.4-32.7 37.1-32.7h32.4c18.7 0 34.7 14.1 37.1 32.7l.5 3.5h15.4c20.2 0 36.6 16.4 36.6 36.6v8.9h-6.8v8.1H246v-17c0-7.1-1.7-13.8-4.7-19.8zM194.7 60h24.1c-1.7 5-6.5 8.6-12 8.6-5.6 0-10.4-3.6-12.1-8.6z"/><path d="M53.9 171.2c12.5 0 22.6 10.1 22.6 22.6 0 12.4-10.1 22.6-22.6 22.6-12.5 0-22.6-10.1-22.6-22.6 0-12.5 10.2-22.6 22.6-22.6zM199.5 171.2c12.5 0 22.6 10.1 22.6 22.6 0 12.4-10.1 22.6-22.6 22.6s-22.6-10.1-22.6-22.6c0-12.5 10.1-22.6 22.6-22.6zM149.7 145.4l-43 32.5h20.8l-29.8 29.8 55.7-38.8h-21l29.7-23.5z"/></svg>