<svg xmlns="http://www.w3.org/2000/svg" width="400" height="360" fill="none" viewBox="0 0 400 360">
  <rect width="400" height="360" fill="#7B10C1" rx="8"/>
  <g fill="#fff" clip-path="url(#a)">
    <path d="m298.3 179.2.1-5.2c.1-10.1.2-19.7-4.7-30.5-4.8-8-9.8-12.6-14.2-16.8-6.8-6.4-11.4-25.4-11.7-39.4 9.5-1.9 16.7-10.3 16.7-20.4v-4.1h-9V50.7h-8.1v12.2h-9.2V50.7h-8.1v12.2h-7.2V67c0 10.1 7.2 18.5 16.8 20.4.3 17.5 6.7 38.3 14.2 45.3 4.2 3.9 8.6 8 12.5 14.6 3.1 6.8 3.7 13.4 3.8 20.5-8.1-8.3-19.5-13.6-32-13.6h-8.4c-4.4-20.9-23-36.2-44.6-36.2h-32.4c-21.6 0-40.1 15.3-44.6 36.2h-16.5C87.1 154.2 67 174.3 67 199v17h14.3v-8.1h-6.1V199c0-20.2 16.4-36.6 36.6-36.6h23.5l.5-3.5c2.5-18.6 18.4-32.7 37.1-32.7h32.4c18.7 0 34.7 14.1 37.1 32.7l.5 3.5h15.4c20.2 0 36.6 16.4 36.6 36.6v8.9h-6.8v8.1H303v-17c0-7.1-1.7-13.8-4.7-19.8ZM251.7 71h24.1c-1.7 5-6.5 8.6-12 8.6-5.6 0-10.4-3.6-12.1-8.6Z"/>
    <path d="M110.9 182.2c12.5 0 22.6 10.1 22.6 22.6 0 12.4-10.1 22.6-22.6 22.6-12.5 0-22.6-10.1-22.6-22.6 0-12.5 10.2-22.6 22.6-22.6Zm145.6 0c12.5 0 22.6 10.1 22.6 22.6 0 12.4-10.1 22.6-22.6 22.6-12.5 0-22.6-10.1-22.6-22.6 0-12.5 10.1-22.6 22.6-22.6Zm-49.8-25.8-43 32.5h20.8l-29.8 29.8 55.7-38.8h-21l29.7-23.5h-12.4Z"/>
  </g>
  <path stroke="#fff" stroke-width="2" d="M64.999 237.5h260M125 244h230"/>
  <path fill="#fff" d="M77.496 309 60.7 265.208h13.328l10.2 28.968 10.2-28.968h13.396L91.028 309H77.496Zm49.186.68c-6.438 0-11.198-1.428-14.28-4.284-3.038-2.856-4.556-7.027-4.556-12.512 0-5.44 1.541-9.588 4.624-12.444 3.082-2.901 7.82-4.352 14.212-4.352 6.437 0 11.197 1.451 14.28 4.352 3.128 2.856 4.692 7.004 4.692 12.444 0 5.485-1.542 9.656-4.624 12.512-3.083 2.856-7.866 4.284-14.348 4.284Zm0-9.316c2.085 0 3.581-.589 4.488-1.768.952-1.179 1.428-3.083 1.428-5.712 0-2.584-.476-4.465-1.428-5.644-.907-1.224-2.403-1.836-4.488-1.836-2.04 0-3.514.612-4.42 1.836-.907 1.179-1.36 3.06-1.36 5.644 0 2.629.453 4.533 1.36 5.712.906 1.179 2.38 1.768 4.42 1.768Zm37.43 9.316c-3.944 0-6.755-.839-8.432-2.516-1.677-1.677-2.516-4.307-2.516-7.888v-36.108h12.784v34.68c0 .997.204 1.677.612 2.04.408.317 1.043.476 1.904.476.589 0 1.156-.045 1.7-.136a8.656 8.656 0 0 0 1.632-.408v8.5a21.397 21.397 0 0 1-3.468 1.02c-1.088.227-2.493.34-4.216.34Zm25.564 0c-4.306 0-7.434-1.088-9.384-3.264-1.949-2.176-2.924-5.123-2.924-8.84V286.22h-4.216v-9.452h4.216v-6.596l12.784-3.06v9.656h7.412l-.476 9.452h-6.936v10.404c0 1.36.34 2.335 1.02 2.924.68.544 1.723.816 3.128.816 1.315 0 2.652-.227 4.012-.68v8.5c-2.402.997-5.281 1.496-8.636 1.496Zm26.444 0c-3.762 0-6.709-1.065-8.84-3.196-2.13-2.131-3.196-5.259-3.196-9.384v-20.332h12.784v19.312c0 2.811 1.428 4.216 4.284 4.216a7.327 7.327 0 0 0 3.06-.68c.998-.453 1.791-1.02 2.38-1.7v-21.148h12.784V309h-11.968l-.34-2.448c-1.269.907-2.833 1.655-4.692 2.244-1.813.589-3.898.884-6.256.884Zm32.063-.68v-32.232h12.308l.34 2.584c1.315-.771 2.992-1.473 5.032-2.108a26.576 26.576 0 0 1 6.188-1.156v9.52c-1.178.091-2.47.249-3.876.476-1.36.227-2.697.521-4.012.884-1.269.317-2.334.68-3.196 1.088V309h-12.784Zm38.218.68c-2.04 0-3.944-.363-5.712-1.088a9.227 9.227 0 0 1-4.148-3.4c-1.043-1.541-1.564-3.491-1.564-5.848 0-3.4 1.133-6.029 3.4-7.888 2.267-1.904 5.689-2.856 10.268-2.856h8.364v-.612c0-1.269-.521-2.199-1.564-2.788-1.043-.589-2.879-.884-5.508-.884-3.717 0-7.389.567-11.016 1.7v-7.684c1.632-.635 3.672-1.156 6.12-1.564a41.02 41.02 0 0 1 7.48-.68c5.123 0 9.18 1.043 12.172 3.128 2.992 2.085 4.488 5.395 4.488 9.928V309h-11.152l-.612-2.584c-1.133.997-2.607 1.791-4.42 2.38-1.768.589-3.967.884-6.596.884Zm4.352-7.48c1.451 0 2.675-.249 3.672-.748 1.043-.499 1.904-1.111 2.584-1.836v-4.012h-6.188c-2.811 0-4.216 1.111-4.216 3.332 0 2.176 1.383 3.264 4.148 3.264Z"/>
  <defs>
    <clipPath id="a">
      <path fill="#fff" d="M67 50h236v178H67z"/>
    </clipPath>
  </defs>
</svg>
