<?xml version="1.0" encoding="utf-8"?>
<!-- Svg Vector Icons : http://www.onlinewebfonts.com/icon -->
<!DOCTYPE svg PUBLIC "-//W3C//DTD SVG 1.1//EN" "http://www.w3.org/Graphics/SVG/1.1/DTD/svg11.dtd">
<svg version="1.1" xmlns="http://www.w3.org/2000/svg" xmlns:xlink="http://www.w3.org/1999/xlink" x="0px" y="0px" viewBox="0 0 256 256" enable-background="new 0 0 256 256" xml:space="preserve">
<metadata> Svg Vector Icons : http://www.onlinewebfonts.com/icon </metadata>
<g><g><g><g><path fill="#000000" d="M241.3,168.2L241.3,168.2l0.1-5.2c0.1-10.1,0.2-19.7-4.7-30.5c-4.8-8-9.8-12.6-14.2-16.8c-6.8-6.4-11.4-25.4-11.7-39.4c9.5-1.9,16.7-10.3,16.7-20.4v-4.1h-9V39.7h-8.1v12.2h-9.2V39.7h-8.1v12.2h-7.2v4.1c0,10.1,7.2,18.5,16.8,20.4c0.3,17.5,6.7,38.3,14.2,45.3c4.2,3.9,8.6,8,12.5,14.6c3.1,6.8,3.7,13.4,3.8,20.5c-8.1-8.3-19.5-13.6-32-13.6h-8.4c-4.4-20.9-23-36.2-44.6-36.2h-32.4c-21.6,0-40.1,15.3-44.6,36.2H54.7C30.1,143.2,10,163.3,10,188v17h14.3v-8.1h-6.1V188c0-20.2,16.4-36.6,36.6-36.6h23.5l0.5-3.5c2.5-18.6,18.4-32.7,37.1-32.7h32.4c18.7,0,34.7,14.1,37.1,32.7l0.5,3.5h15.4c20.2,0,36.6,16.4,36.6,36.6v8.9h-6.8v8.1H246v-17C246,180.9,244.3,174.2,241.3,168.2z M194.7,60h24.1c-1.7,5-6.5,8.6-12,8.6C201.2,68.6,196.4,65,194.7,60z"/><path fill="#000000" d="M53.9,171.2c12.5,0,22.6,10.1,22.6,22.6c0,12.4-10.1,22.6-22.6,22.6c-12.5,0-22.6-10.1-22.6-22.6C31.3,181.3,41.5,171.2,53.9,171.2z"/><path fill="#000000" d="M199.5,171.2c12.5,0,22.6,10.1,22.6,22.6c0,12.4-10.1,22.6-22.6,22.6s-22.6-10.1-22.6-22.6C176.9,181.3,187,171.2,199.5,171.2z"/><path fill="#000000" d="M149.7 145.4L106.7 177.9 127.5 177.9 97.7 207.7 153.4 168.9 132.4 168.9 162.1 145.4 z"/></g></g><g></g><g></g><g></g><g></g><g></g><g></g><g></g><g></g><g></g><g></g><g></g><g></g><g></g><g></g><g></g></g></g>
</svg>